<svg width="22" height="22" viewBox="0 0 22 22" fill="none" xmlns="http://www.w3.org/2000/svg">
<path d="M18.3333 11.9163C18.3333 16.4996 15.125 18.7913 11.3118 20.1204C11.1121 20.1881 10.8952 20.1848 10.6976 20.1112C6.87513 18.7913 3.66683 16.4996 3.66683 11.9163V5.49972C3.66683 5.25661 3.76341 5.02345 3.93531 4.85155C4.10722 4.67964 4.34037 4.58307 4.58349 4.58307C6.4168 4.58307 8.70844 3.48308 10.3034 2.08976C10.4976 1.92384 10.7447 1.83268 11.0001 1.83268C11.2555 1.83268 11.5025 1.92384 11.6967 2.08976C13.3009 3.49224 15.5834 4.58307 17.4167 4.58307C17.6598 4.58307 17.893 4.67964 18.0649 4.85155C18.2368 5.02345 18.3333 5.25661 18.3333 5.49972V11.9163Z" stroke="white" stroke-width="1.83218" stroke-linecap="round" stroke-linejoin="round"/>
<path d="M8.24976 10.9997L10.0831 12.833L13.7497 9.16634" stroke="white" stroke-width="1.83331" stroke-linecap="round" stroke-linejoin="round"/>
</svg>
