<svg width="1470" height="478" viewBox="0 0 1470 478" fill="none" xmlns="http://www.w3.org/2000/svg">
<g clip-path="url(#clip0_21_1639)">
<path d="M1470 -55.0757H0V532.924H1470V-55.0757Z" fill="#006270" fill-opacity="0.07"/>
<path opacity="0.35" d="M53.9 18.425H9.79998C7.09378 18.425 4.89998 20.6188 4.89998 23.325V57.625C4.89998 60.3312 7.09378 62.525 9.79998 62.525H53.9C56.6062 62.525 58.8 60.3312 58.8 57.625V23.325C58.8 20.6188 56.6062 18.425 53.9 18.425Z" stroke="#006270" stroke-width="0.979887"/>
<path opacity="0.35" d="M122.5 18.425H78.3997C75.6935 18.425 73.4997 20.6188 73.4997 23.325V57.625C73.4997 60.3312 75.6935 62.525 78.3997 62.525H122.5C125.206 62.525 127.4 60.3312 127.4 57.625V23.325C127.4 20.6188 125.206 18.425 122.5 18.425Z" stroke="#006270" stroke-width="0.979887"/>
<path opacity="0.35" d="M191.1 18.425H147C144.294 18.425 142.1 20.6188 142.1 23.325V57.625C142.1 60.3312 144.294 62.525 147 62.525H191.1C193.807 62.525 196 60.3312 196 57.625V23.325C196 20.6188 193.807 18.425 191.1 18.425Z" stroke="#006270" stroke-width="0.979887"/>
<path opacity="0.35" d="M259.7 18.425H215.6C212.894 18.425 210.7 20.6188 210.7 23.325V57.625C210.7 60.3312 212.894 62.525 215.6 62.525H259.7C262.406 62.525 264.6 60.3312 264.6 57.625V23.325C264.6 20.6188 262.406 18.425 259.7 18.425Z" stroke="#006270" stroke-width="0.979887"/>
<path opacity="0.35" d="M328.3 18.425H284.2C281.494 18.425 279.3 20.6188 279.3 23.325V57.625C279.3 60.3312 281.494 62.525 284.2 62.525H328.3C331.006 62.525 333.2 60.3312 333.2 57.625V23.325C333.2 20.6188 331.006 18.425 328.3 18.425Z" stroke="#006270" stroke-width="0.979887"/>
<path opacity="0.35" d="M396.9 18.425H352.8C350.093 18.425 347.9 20.6188 347.9 23.325V57.625C347.9 60.3312 350.093 62.525 352.8 62.525H396.9C399.606 62.525 401.8 60.3312 401.8 57.625V23.325C401.8 20.6188 399.606 18.425 396.9 18.425Z" stroke="#006270" stroke-width="0.979887"/>
<path opacity="0.35" d="M465.5 18.425H421.4C418.694 18.425 416.5 20.6188 416.5 23.325V57.625C416.5 60.3312 418.694 62.525 421.4 62.525H465.5C468.206 62.525 470.4 60.3312 470.4 57.625V23.325C470.4 20.6188 468.206 18.425 465.5 18.425Z" stroke="#006270" stroke-width="0.979887"/>
<path opacity="0.35" d="M534.1 18.425H490C487.294 18.425 485.1 20.6188 485.1 23.325V57.625C485.1 60.3312 487.294 62.525 490 62.525H534.1C536.806 62.525 539 60.3312 539 57.625V23.325C539 20.6188 536.806 18.425 534.1 18.425Z" stroke="#006270" stroke-width="0.979887"/>
<path opacity="0.35" d="M602.7 18.425H558.6C555.894 18.425 553.7 20.6188 553.7 23.325V57.625C553.7 60.3312 555.894 62.525 558.6 62.525H602.7C605.406 62.525 607.6 60.3312 607.6 57.625V23.325C607.6 20.6188 605.406 18.425 602.7 18.425Z" stroke="#006270" stroke-width="0.979887"/>
<path opacity="0.35" d="M671.3 18.425H627.2C624.494 18.425 622.3 20.6188 622.3 23.325V57.625C622.3 60.3312 624.494 62.525 627.2 62.525H671.3C674.007 62.525 676.2 60.3312 676.2 57.625V23.325C676.2 20.6188 674.007 18.425 671.3 18.425Z" stroke="#006270" stroke-width="0.979887"/>
<path opacity="0.35" d="M739.9 18.425H695.8C693.094 18.425 690.9 20.6188 690.9 23.325V57.625C690.9 60.3312 693.094 62.525 695.8 62.525H739.9C742.606 62.525 744.8 60.3312 744.8 57.625V23.325C744.8 20.6188 742.606 18.425 739.9 18.425Z" stroke="#006270" stroke-width="0.979887"/>
<path opacity="0.35" d="M808.5 18.425H764.4C761.694 18.425 759.5 20.6188 759.5 23.325V57.625C759.5 60.3312 761.694 62.525 764.4 62.525H808.5C811.206 62.525 813.4 60.3312 813.4 57.625V23.325C813.4 20.6188 811.206 18.425 808.5 18.425Z" stroke="#006270" stroke-width="0.979887"/>
<path opacity="0.35" d="M877.1 18.425H833C830.293 18.425 828.1 20.6188 828.1 23.325V57.625C828.1 60.3312 830.293 62.525 833 62.525H877.1C879.806 62.525 882 60.3312 882 57.625V23.325C882 20.6188 879.806 18.425 877.1 18.425Z" stroke="#006270" stroke-width="0.979887"/>
<path opacity="0.35" d="M945.7 18.425H901.6C898.894 18.425 896.7 20.6188 896.7 23.325V57.625C896.7 60.3312 898.894 62.525 901.6 62.525H945.7C948.407 62.525 950.6 60.3312 950.6 57.625V23.325C950.6 20.6188 948.407 18.425 945.7 18.425Z" stroke="#006270" stroke-width="0.979887"/>
<path opacity="0.35" d="M1014.3 18.425H970.2C967.494 18.425 965.3 20.6188 965.3 23.325V57.625C965.3 60.3312 967.494 62.525 970.2 62.525H1014.3C1017.01 62.525 1019.2 60.3312 1019.2 57.625V23.325C1019.2 20.6188 1017.01 18.425 1014.3 18.425Z" stroke="#006270" stroke-width="0.979887"/>
<path opacity="0.35" d="M1082.9 18.425H1038.8C1036.09 18.425 1033.9 20.6188 1033.9 23.325V57.625C1033.9 60.3312 1036.09 62.525 1038.8 62.525H1082.9C1085.61 62.525 1087.8 60.3312 1087.8 57.625V23.325C1087.8 20.6188 1085.61 18.425 1082.9 18.425Z" stroke="#006270" stroke-width="0.979887"/>
<path opacity="0.35" d="M1151.5 18.425H1107.4C1104.69 18.425 1102.5 20.6188 1102.5 23.325V57.625C1102.5 60.3312 1104.69 62.525 1107.4 62.525H1151.5C1154.21 62.525 1156.4 60.3312 1156.4 57.625V23.325C1156.4 20.6188 1154.21 18.425 1151.5 18.425Z" stroke="#006270" stroke-width="0.979887"/>
<path opacity="0.35" d="M1220.1 18.425H1176C1173.29 18.425 1171.1 20.6188 1171.1 23.325V57.625C1171.1 60.3312 1173.29 62.525 1176 62.525H1220.1C1222.81 62.525 1225 60.3312 1225 57.625V23.325C1225 20.6188 1222.81 18.425 1220.1 18.425Z" stroke="#006270" stroke-width="0.979887"/>
<path opacity="0.35" d="M1288.7 18.425H1244.6C1241.89 18.425 1239.7 20.6188 1239.7 23.325V57.625C1239.7 60.3312 1241.89 62.525 1244.6 62.525H1288.7C1291.41 62.525 1293.6 60.3312 1293.6 57.625V23.325C1293.6 20.6188 1291.41 18.425 1288.7 18.425Z" stroke="#006270" stroke-width="0.979887"/>
<path opacity="0.35" d="M1357.3 18.425H1313.2C1310.49 18.425 1308.3 20.6188 1308.3 23.325V57.625C1308.3 60.3312 1310.49 62.525 1313.2 62.525H1357.3C1360.01 62.525 1362.2 60.3312 1362.2 57.625V23.325C1362.2 20.6188 1360.01 18.425 1357.3 18.425Z" stroke="#006270" stroke-width="0.979887"/>
<path opacity="0.35" d="M1425.9 18.425H1381.8C1379.09 18.425 1376.9 20.6188 1376.9 23.325V57.625C1376.9 60.3312 1379.09 62.525 1381.8 62.525H1425.9C1428.61 62.525 1430.8 60.3312 1430.8 57.625V23.325C1430.8 20.6188 1428.61 18.425 1425.9 18.425Z" stroke="#006270" stroke-width="0.979887"/>
<path opacity="0.35" d="M1494.5 18.425H1450.4C1447.69 18.425 1445.5 20.6188 1445.5 23.325V57.625C1445.5 60.3312 1447.69 62.525 1450.4 62.525H1494.5C1497.21 62.525 1499.4 60.3312 1499.4 57.625V23.325C1499.4 20.6188 1497.21 18.425 1494.5 18.425Z" stroke="#006270" stroke-width="0.979887"/>
<path opacity="0.35" d="M53.9 87.0247H9.79998C7.09378 87.0247 4.89998 89.2185 4.89998 91.9247V126.225C4.89998 128.931 7.09378 131.125 9.79998 131.125H53.9C56.6062 131.125 58.8 128.931 58.8 126.225V91.9247C58.8 89.2185 56.6062 87.0247 53.9 87.0247Z" stroke="#006270" stroke-width="0.979887"/>
<path opacity="0.35" d="M122.5 87.0247H78.3997C75.6935 87.0247 73.4997 89.2185 73.4997 91.9247V126.225C73.4997 128.931 75.6935 131.125 78.3997 131.125H122.5C125.206 131.125 127.4 128.931 127.4 126.225V91.9247C127.4 89.2185 125.206 87.0247 122.5 87.0247Z" stroke="#006270" stroke-width="0.979887"/>
<path opacity="0.35" d="M191.1 87.0247H147C144.294 87.0247 142.1 89.2185 142.1 91.9247V126.225C142.1 128.931 144.294 131.125 147 131.125H191.1C193.807 131.125 196 128.931 196 126.225V91.9247C196 89.2185 193.807 87.0247 191.1 87.0247Z" stroke="#006270" stroke-width="0.979887"/>
<path opacity="0.35" d="M259.7 87.0247H215.6C212.894 87.0247 210.7 89.2185 210.7 91.9247V126.225C210.7 128.931 212.894 131.125 215.6 131.125H259.7C262.406 131.125 264.6 128.931 264.6 126.225V91.9247C264.6 89.2185 262.406 87.0247 259.7 87.0247Z" stroke="#006270" stroke-width="0.979887"/>
<path opacity="0.35" d="M328.3 87.0247H284.2C281.494 87.0247 279.3 89.2185 279.3 91.9247V126.225C279.3 128.931 281.494 131.125 284.2 131.125H328.3C331.006 131.125 333.2 128.931 333.2 126.225V91.9247C333.2 89.2185 331.006 87.0247 328.3 87.0247Z" stroke="#006270" stroke-width="0.979887"/>
<path opacity="0.35" d="M396.9 87.0247H352.8C350.093 87.0247 347.9 89.2185 347.9 91.9247V126.225C347.9 128.931 350.093 131.125 352.8 131.125H396.9C399.606 131.125 401.8 128.931 401.8 126.225V91.9247C401.8 89.2185 399.606 87.0247 396.9 87.0247Z" stroke="#006270" stroke-width="0.979887"/>
<path opacity="0.35" d="M465.5 87.0247H421.4C418.694 87.0247 416.5 89.2185 416.5 91.9247V126.225C416.5 128.931 418.694 131.125 421.4 131.125H465.5C468.206 131.125 470.4 128.931 470.4 126.225V91.9247C470.4 89.2185 468.206 87.0247 465.5 87.0247Z" stroke="#006270" stroke-width="0.979887"/>
<path opacity="0.35" d="M534.1 87.0247H490C487.294 87.0247 485.1 89.2185 485.1 91.9247V126.225C485.1 128.931 487.294 131.125 490 131.125H534.1C536.806 131.125 539 128.931 539 126.225V91.9247C539 89.2185 536.806 87.0247 534.1 87.0247Z" stroke="#006270" stroke-width="0.979887"/>
<path opacity="0.35" d="M602.7 87.0247H558.6C555.894 87.0247 553.7 89.2185 553.7 91.9247V126.225C553.7 128.931 555.894 131.125 558.6 131.125H602.7C605.406 131.125 607.6 128.931 607.6 126.225V91.9247C607.6 89.2185 605.406 87.0247 602.7 87.0247Z" stroke="#006270" stroke-width="0.979887"/>
<path opacity="0.35" d="M671.3 87.0247H627.2C624.494 87.0247 622.3 89.2185 622.3 91.9247V126.225C622.3 128.931 624.494 131.125 627.2 131.125H671.3C674.007 131.125 676.2 128.931 676.2 126.225V91.9247C676.2 89.2185 674.007 87.0247 671.3 87.0247Z" stroke="#006270" stroke-width="0.979887"/>
<path opacity="0.35" d="M739.9 87.0247H695.8C693.094 87.0247 690.9 89.2185 690.9 91.9247V126.225C690.9 128.931 693.094 131.125 695.8 131.125H739.9C742.606 131.125 744.8 128.931 744.8 126.225V91.9247C744.8 89.2185 742.606 87.0247 739.9 87.0247Z" stroke="#006270" stroke-width="0.979887"/>
<path opacity="0.35" d="M808.5 87.0247H764.4C761.694 87.0247 759.5 89.2185 759.5 91.9247V126.225C759.5 128.931 761.694 131.125 764.4 131.125H808.5C811.206 131.125 813.4 128.931 813.4 126.225V91.9247C813.4 89.2185 811.206 87.0247 808.5 87.0247Z" stroke="#006270" stroke-width="0.979887"/>
<path opacity="0.35" d="M877.1 87.0247H833C830.293 87.0247 828.1 89.2185 828.1 91.9247V126.225C828.1 128.931 830.293 131.125 833 131.125H877.1C879.806 131.125 882 128.931 882 126.225V91.9247C882 89.2185 879.806 87.0247 877.1 87.0247Z" stroke="#006270" stroke-width="0.979887"/>
<path opacity="0.35" d="M945.7 87.0247H901.6C898.894 87.0247 896.7 89.2185 896.7 91.9247V126.225C896.7 128.931 898.894 131.125 901.6 131.125H945.7C948.407 131.125 950.6 128.931 950.6 126.225V91.9247C950.6 89.2185 948.407 87.0247 945.7 87.0247Z" stroke="#006270" stroke-width="0.979887"/>
<path opacity="0.35" d="M1014.3 87.0247H970.2C967.494 87.0247 965.3 89.2185 965.3 91.9247V126.225C965.3 128.931 967.494 131.125 970.2 131.125H1014.3C1017.01 131.125 1019.2 128.931 1019.2 126.225V91.9247C1019.2 89.2185 1017.01 87.0247 1014.3 87.0247Z" stroke="#006270" stroke-width="0.979887"/>
<path opacity="0.35" d="M1082.9 87.0247H1038.8C1036.09 87.0247 1033.9 89.2185 1033.9 91.9247V126.225C1033.9 128.931 1036.09 131.125 1038.8 131.125H1082.9C1085.61 131.125 1087.8 128.931 1087.8 126.225V91.9247C1087.8 89.2185 1085.61 87.0247 1082.9 87.0247Z" stroke="#006270" stroke-width="0.979887"/>
<path opacity="0.35" d="M1151.5 87.0247H1107.4C1104.69 87.0247 1102.5 89.2185 1102.5 91.9247V126.225C1102.5 128.931 1104.69 131.125 1107.4 131.125H1151.5C1154.21 131.125 1156.4 128.931 1156.4 126.225V91.9247C1156.4 89.2185 1154.21 87.0247 1151.5 87.0247Z" stroke="#006270" stroke-width="0.979887"/>
<path opacity="0.35" d="M1220.1 87.0247H1176C1173.29 87.0247 1171.1 89.2185 1171.1 91.9247V126.225C1171.1 128.931 1173.29 131.125 1176 131.125H1220.1C1222.81 131.125 1225 128.931 1225 126.225V91.9247C1225 89.2185 1222.81 87.0247 1220.1 87.0247Z" stroke="#006270" stroke-width="0.979887"/>
<path opacity="0.35" d="M1288.7 87.0247H1244.6C1241.89 87.0247 1239.7 89.2185 1239.7 91.9247V126.225C1239.7 128.931 1241.89 131.125 1244.6 131.125H1288.7C1291.41 131.125 1293.6 128.931 1293.6 126.225V91.9247C1293.6 89.2185 1291.41 87.0247 1288.7 87.0247Z" stroke="#006270" stroke-width="0.979887"/>
<path opacity="0.35" d="M1357.3 87.0247H1313.2C1310.49 87.0247 1308.3 89.2185 1308.3 91.9247V126.225C1308.3 128.931 1310.49 131.125 1313.2 131.125H1357.3C1360.01 131.125 1362.2 128.931 1362.2 126.225V91.9247C1362.2 89.2185 1360.01 87.0247 1357.3 87.0247Z" stroke="#006270" stroke-width="0.979887"/>
<path opacity="0.35" d="M1425.9 87.0247H1381.8C1379.09 87.0247 1376.9 89.2185 1376.9 91.9247V126.225C1376.9 128.931 1379.09 131.125 1381.8 131.125H1425.9C1428.61 131.125 1430.8 128.931 1430.8 126.225V91.9247C1430.8 89.2185 1428.61 87.0247 1425.9 87.0247Z" stroke="#006270" stroke-width="0.979887"/>
<path opacity="0.35" d="M1494.5 87.0247H1450.4C1447.69 87.0247 1445.5 89.2185 1445.5 91.9247V126.225C1445.5 128.931 1447.69 131.125 1450.4 131.125H1494.5C1497.21 131.125 1499.4 128.931 1499.4 126.225V91.9247C1499.4 89.2185 1497.21 87.0247 1494.5 87.0247Z" stroke="#006270" stroke-width="0.979887"/>
<path opacity="0.35" d="M53.9 155.624H9.79998C7.09378 155.624 4.89998 157.818 4.89998 160.524V194.824C4.89998 197.531 7.09378 199.724 9.79998 199.724H53.9C56.6062 199.724 58.8 197.531 58.8 194.824V160.524C58.8 157.818 56.6062 155.624 53.9 155.624Z" stroke="#006270" stroke-width="0.979887"/>
<path opacity="0.35" d="M122.5 155.624H78.3997C75.6935 155.624 73.4997 157.818 73.4997 160.524V194.824C73.4997 197.531 75.6935 199.724 78.3997 199.724H122.5C125.206 199.724 127.4 197.531 127.4 194.824V160.524C127.4 157.818 125.206 155.624 122.5 155.624Z" stroke="#006270" stroke-width="0.979887"/>
<path opacity="0.35" d="M191.1 155.624H147C144.294 155.624 142.1 157.818 142.1 160.524V194.824C142.1 197.531 144.294 199.724 147 199.724H191.1C193.807 199.724 196 197.531 196 194.824V160.524C196 157.818 193.807 155.624 191.1 155.624Z" stroke="#006270" stroke-width="0.979887"/>
<path opacity="0.35" d="M259.7 155.624H215.6C212.894 155.624 210.7 157.818 210.7 160.524V194.824C210.7 197.531 212.894 199.724 215.6 199.724H259.7C262.406 199.724 264.6 197.531 264.6 194.824V160.524C264.6 157.818 262.406 155.624 259.7 155.624Z" stroke="#006270" stroke-width="0.979887"/>
<path opacity="0.35" d="M328.3 155.624H284.2C281.494 155.624 279.3 157.818 279.3 160.524V194.824C279.3 197.531 281.494 199.724 284.2 199.724H328.3C331.006 199.724 333.2 197.531 333.2 194.824V160.524C333.2 157.818 331.006 155.624 328.3 155.624Z" stroke="#006270" stroke-width="0.979887"/>
<path opacity="0.35" d="M396.9 155.624H352.8C350.093 155.624 347.9 157.818 347.9 160.524V194.824C347.9 197.531 350.093 199.724 352.8 199.724H396.9C399.606 199.724 401.8 197.531 401.8 194.824V160.524C401.8 157.818 399.606 155.624 396.9 155.624Z" stroke="#006270" stroke-width="0.979887"/>
<path opacity="0.35" d="M465.5 155.624H421.4C418.694 155.624 416.5 157.818 416.5 160.524V194.824C416.5 197.531 418.694 199.724 421.4 199.724H465.5C468.206 199.724 470.4 197.531 470.4 194.824V160.524C470.4 157.818 468.206 155.624 465.5 155.624Z" stroke="#006270" stroke-width="0.979887"/>
<path opacity="0.35" d="M534.1 155.624H490C487.294 155.624 485.1 157.818 485.1 160.524V194.824C485.1 197.531 487.294 199.724 490 199.724H534.1C536.806 199.724 539 197.531 539 194.824V160.524C539 157.818 536.806 155.624 534.1 155.624Z" stroke="#006270" stroke-width="0.979887"/>
<path opacity="0.35" d="M602.7 155.624H558.6C555.894 155.624 553.7 157.818 553.7 160.524V194.824C553.7 197.531 555.894 199.724 558.6 199.724H602.7C605.406 199.724 607.6 197.531 607.6 194.824V160.524C607.6 157.818 605.406 155.624 602.7 155.624Z" stroke="#006270" stroke-width="0.979887"/>
<path opacity="0.35" d="M671.3 155.624H627.2C624.494 155.624 622.3 157.818 622.3 160.524V194.824C622.3 197.531 624.494 199.724 627.2 199.724H671.3C674.007 199.724 676.2 197.531 676.2 194.824V160.524C676.2 157.818 674.007 155.624 671.3 155.624Z" stroke="#006270" stroke-width="0.979887"/>
<path opacity="0.35" d="M739.9 155.624H695.8C693.094 155.624 690.9 157.818 690.9 160.524V194.824C690.9 197.531 693.094 199.724 695.8 199.724H739.9C742.606 199.724 744.8 197.531 744.8 194.824V160.524C744.8 157.818 742.606 155.624 739.9 155.624Z" stroke="#006270" stroke-width="0.979887"/>
<path opacity="0.35" d="M808.5 155.624H764.4C761.694 155.624 759.5 157.818 759.5 160.524V194.824C759.5 197.531 761.694 199.724 764.4 199.724H808.5C811.206 199.724 813.4 197.531 813.4 194.824V160.524C813.4 157.818 811.206 155.624 808.5 155.624Z" stroke="#006270" stroke-width="0.979887"/>
<path opacity="0.35" d="M877.1 155.624H833C830.293 155.624 828.1 157.818 828.1 160.524V194.824C828.1 197.531 830.293 199.724 833 199.724H877.1C879.806 199.724 882 197.531 882 194.824V160.524C882 157.818 879.806 155.624 877.1 155.624Z" stroke="#006270" stroke-width="0.979887"/>
<path opacity="0.35" d="M945.7 155.624H901.6C898.894 155.624 896.7 157.818 896.7 160.524V194.824C896.7 197.531 898.894 199.724 901.6 199.724H945.7C948.407 199.724 950.6 197.531 950.6 194.824V160.524C950.6 157.818 948.407 155.624 945.7 155.624Z" stroke="#006270" stroke-width="0.979887"/>
<path opacity="0.35" d="M1014.3 155.624H970.2C967.494 155.624 965.3 157.818 965.3 160.524V194.824C965.3 197.531 967.494 199.724 970.2 199.724H1014.3C1017.01 199.724 1019.2 197.531 1019.2 194.824V160.524C1019.2 157.818 1017.01 155.624 1014.3 155.624Z" stroke="#006270" stroke-width="0.979887"/>
<path opacity="0.35" d="M1082.9 155.624H1038.8C1036.09 155.624 1033.9 157.818 1033.9 160.524V194.824C1033.9 197.531 1036.09 199.724 1038.8 199.724H1082.9C1085.61 199.724 1087.8 197.531 1087.8 194.824V160.524C1087.8 157.818 1085.61 155.624 1082.9 155.624Z" stroke="#006270" stroke-width="0.979887"/>
<path opacity="0.35" d="M1151.5 155.624H1107.4C1104.69 155.624 1102.5 157.818 1102.5 160.524V194.824C1102.5 197.531 1104.69 199.724 1107.4 199.724H1151.5C1154.21 199.724 1156.4 197.531 1156.4 194.824V160.524C1156.4 157.818 1154.21 155.624 1151.5 155.624Z" stroke="#006270" stroke-width="0.979887"/>
<path opacity="0.35" d="M1220.1 155.624H1176C1173.29 155.624 1171.1 157.818 1171.1 160.524V194.824C1171.1 197.531 1173.29 199.724 1176 199.724H1220.1C1222.81 199.724 1225 197.531 1225 194.824V160.524C1225 157.818 1222.81 155.624 1220.1 155.624Z" stroke="#006270" stroke-width="0.979887"/>
<path opacity="0.35" d="M1288.7 155.624H1244.6C1241.89 155.624 1239.7 157.818 1239.7 160.524V194.824C1239.7 197.531 1241.89 199.724 1244.6 199.724H1288.7C1291.41 199.724 1293.6 197.531 1293.6 194.824V160.524C1293.6 157.818 1291.41 155.624 1288.7 155.624Z" stroke="#006270" stroke-width="0.979887"/>
<path opacity="0.35" d="M1357.3 155.624H1313.2C1310.49 155.624 1308.3 157.818 1308.3 160.524V194.824C1308.3 197.531 1310.49 199.724 1313.2 199.724H1357.3C1360.01 199.724 1362.2 197.531 1362.2 194.824V160.524C1362.2 157.818 1360.01 155.624 1357.3 155.624Z" stroke="#006270" stroke-width="0.979887"/>
<path opacity="0.35" d="M1425.9 155.624H1381.8C1379.09 155.624 1376.9 157.818 1376.9 160.524V194.824C1376.9 197.531 1379.09 199.724 1381.8 199.724H1425.9C1428.61 199.724 1430.8 197.531 1430.8 194.824V160.524C1430.8 157.818 1428.61 155.624 1425.9 155.624Z" stroke="#006270" stroke-width="0.979887"/>
<path opacity="0.35" d="M1494.5 155.624H1450.4C1447.69 155.624 1445.5 157.818 1445.5 160.524V194.824C1445.5 197.531 1447.69 199.724 1450.4 199.724H1494.5C1497.21 199.724 1499.4 197.531 1499.4 194.824V160.524C1499.4 157.818 1497.21 155.624 1494.5 155.624Z" stroke="#006270" stroke-width="0.979887"/>
<path opacity="0.35" d="M53.9 224.224H9.79998C7.09378 224.224 4.89998 226.418 4.89998 229.124V263.424C4.89998 266.13 7.09378 268.324 9.79998 268.324H53.9C56.6062 268.324 58.8 266.13 58.8 263.424V229.124C58.8 226.418 56.6062 224.224 53.9 224.224Z" stroke="#006270" stroke-width="0.979887"/>
<path opacity="0.35" d="M122.5 224.224H78.3997C75.6935 224.224 73.4997 226.418 73.4997 229.124V263.424C73.4997 266.13 75.6935 268.324 78.3997 268.324H122.5C125.206 268.324 127.4 266.13 127.4 263.424V229.124C127.4 226.418 125.206 224.224 122.5 224.224Z" stroke="#006270" stroke-width="0.979887"/>
<path opacity="0.35" d="M191.1 224.224H147C144.294 224.224 142.1 226.418 142.1 229.124V263.424C142.1 266.13 144.294 268.324 147 268.324H191.1C193.807 268.324 196 266.13 196 263.424V229.124C196 226.418 193.807 224.224 191.1 224.224Z" stroke="#006270" stroke-width="0.979887"/>
<path opacity="0.35" d="M259.7 224.224H215.6C212.894 224.224 210.7 226.418 210.7 229.124V263.424C210.7 266.13 212.894 268.324 215.6 268.324H259.7C262.406 268.324 264.6 266.13 264.6 263.424V229.124C264.6 226.418 262.406 224.224 259.7 224.224Z" stroke="#006270" stroke-width="0.979887"/>
<path opacity="0.35" d="M328.3 224.224H284.2C281.494 224.224 279.3 226.418 279.3 229.124V263.424C279.3 266.13 281.494 268.324 284.2 268.324H328.3C331.006 268.324 333.2 266.13 333.2 263.424V229.124C333.2 226.418 331.006 224.224 328.3 224.224Z" stroke="#006270" stroke-width="0.979887"/>
<path opacity="0.35" d="M396.9 224.224H352.8C350.093 224.224 347.9 226.418 347.9 229.124V263.424C347.9 266.13 350.093 268.324 352.8 268.324H396.9C399.606 268.324 401.8 266.13 401.8 263.424V229.124C401.8 226.418 399.606 224.224 396.9 224.224Z" stroke="#006270" stroke-width="0.979887"/>
<path opacity="0.35" d="M465.5 224.224H421.4C418.694 224.224 416.5 226.418 416.5 229.124V263.424C416.5 266.13 418.694 268.324 421.4 268.324H465.5C468.206 268.324 470.4 266.13 470.4 263.424V229.124C470.4 226.418 468.206 224.224 465.5 224.224Z" stroke="#006270" stroke-width="0.979887"/>
<path opacity="0.35" d="M534.1 224.224H490C487.294 224.224 485.1 226.418 485.1 229.124V263.424C485.1 266.13 487.294 268.324 490 268.324H534.1C536.806 268.324 539 266.13 539 263.424V229.124C539 226.418 536.806 224.224 534.1 224.224Z" stroke="#006270" stroke-width="0.979887"/>
<path opacity="0.35" d="M602.7 224.224H558.6C555.894 224.224 553.7 226.418 553.7 229.124V263.424C553.7 266.13 555.894 268.324 558.6 268.324H602.7C605.406 268.324 607.6 266.13 607.6 263.424V229.124C607.6 226.418 605.406 224.224 602.7 224.224Z" stroke="#006270" stroke-width="0.979887"/>
<path opacity="0.35" d="M671.3 224.224H627.2C624.494 224.224 622.3 226.418 622.3 229.124V263.424C622.3 266.13 624.494 268.324 627.2 268.324H671.3C674.007 268.324 676.2 266.13 676.2 263.424V229.124C676.2 226.418 674.007 224.224 671.3 224.224Z" stroke="#006270" stroke-width="0.979887"/>
<path opacity="0.35" d="M739.9 224.224H695.8C693.094 224.224 690.9 226.418 690.9 229.124V263.424C690.9 266.13 693.094 268.324 695.8 268.324H739.9C742.606 268.324 744.8 266.13 744.8 263.424V229.124C744.8 226.418 742.606 224.224 739.9 224.224Z" stroke="#006270" stroke-width="0.979887"/>
<path opacity="0.35" d="M808.5 224.224H764.4C761.694 224.224 759.5 226.418 759.5 229.124V263.424C759.5 266.13 761.694 268.324 764.4 268.324H808.5C811.206 268.324 813.4 266.13 813.4 263.424V229.124C813.4 226.418 811.206 224.224 808.5 224.224Z" stroke="#006270" stroke-width="0.979887"/>
<path opacity="0.35" d="M877.1 224.224H833C830.293 224.224 828.1 226.418 828.1 229.124V263.424C828.1 266.13 830.293 268.324 833 268.324H877.1C879.806 268.324 882 266.13 882 263.424V229.124C882 226.418 879.806 224.224 877.1 224.224Z" stroke="#006270" stroke-width="0.979887"/>
<path opacity="0.35" d="M945.7 224.224H901.6C898.894 224.224 896.7 226.418 896.7 229.124V263.424C896.7 266.13 898.894 268.324 901.6 268.324H945.7C948.407 268.324 950.6 266.13 950.6 263.424V229.124C950.6 226.418 948.407 224.224 945.7 224.224Z" stroke="#006270" stroke-width="0.979887"/>
<path opacity="0.35" d="M1014.3 224.224H970.2C967.494 224.224 965.3 226.418 965.3 229.124V263.424C965.3 266.13 967.494 268.324 970.2 268.324H1014.3C1017.01 268.324 1019.2 266.13 1019.2 263.424V229.124C1019.2 226.418 1017.01 224.224 1014.3 224.224Z" stroke="#006270" stroke-width="0.979887"/>
<path opacity="0.35" d="M1082.9 224.224H1038.8C1036.09 224.224 1033.9 226.418 1033.9 229.124V263.424C1033.9 266.13 1036.09 268.324 1038.8 268.324H1082.9C1085.61 268.324 1087.8 266.13 1087.8 263.424V229.124C1087.8 226.418 1085.61 224.224 1082.9 224.224Z" stroke="#006270" stroke-width="0.979887"/>
<path opacity="0.35" d="M1151.5 224.224H1107.4C1104.69 224.224 1102.5 226.418 1102.5 229.124V263.424C1102.5 266.13 1104.69 268.324 1107.4 268.324H1151.5C1154.21 268.324 1156.4 266.13 1156.4 263.424V229.124C1156.4 226.418 1154.21 224.224 1151.5 224.224Z" stroke="#006270" stroke-width="0.979887"/>
<path opacity="0.35" d="M1220.1 224.224H1176C1173.29 224.224 1171.1 226.418 1171.1 229.124V263.424C1171.1 266.13 1173.29 268.324 1176 268.324H1220.1C1222.81 268.324 1225 266.13 1225 263.424V229.124C1225 226.418 1222.81 224.224 1220.1 224.224Z" stroke="#006270" stroke-width="0.979887"/>
<path opacity="0.35" d="M1288.7 224.224H1244.6C1241.89 224.224 1239.7 226.418 1239.7 229.124V263.424C1239.7 266.13 1241.89 268.324 1244.6 268.324H1288.7C1291.41 268.324 1293.6 266.13 1293.6 263.424V229.124C1293.6 226.418 1291.41 224.224 1288.7 224.224Z" stroke="#006270" stroke-width="0.979887"/>
<path opacity="0.35" d="M1357.3 224.224H1313.2C1310.49 224.224 1308.3 226.418 1308.3 229.124V263.424C1308.3 266.13 1310.49 268.324 1313.2 268.324H1357.3C1360.01 268.324 1362.2 266.13 1362.2 263.424V229.124C1362.2 226.418 1360.01 224.224 1357.3 224.224Z" stroke="#006270" stroke-width="0.979887"/>
<path opacity="0.35" d="M1425.9 224.224H1381.8C1379.09 224.224 1376.9 226.418 1376.9 229.124V263.424C1376.9 266.13 1379.09 268.324 1381.8 268.324H1425.9C1428.61 268.324 1430.8 266.13 1430.8 263.424V229.124C1430.8 226.418 1428.61 224.224 1425.9 224.224Z" stroke="#006270" stroke-width="0.979887"/>
<path opacity="0.35" d="M1494.5 224.224H1450.4C1447.69 224.224 1445.5 226.418 1445.5 229.124V263.424C1445.5 266.13 1447.69 268.324 1450.4 268.324H1494.5C1497.21 268.324 1499.4 266.13 1499.4 263.424V229.124C1499.4 226.418 1497.21 224.224 1494.5 224.224Z" stroke="#006270" stroke-width="0.979887"/>
<path opacity="0.35" d="M53.9 292.825H9.79998C7.09378 292.825 4.89998 295.019 4.89998 297.725V332.025C4.89998 334.731 7.09378 336.925 9.79998 336.925H53.9C56.6062 336.925 58.8 334.731 58.8 332.025V297.725C58.8 295.019 56.6062 292.825 53.9 292.825Z" stroke="#006270" stroke-width="0.979887"/>
<path opacity="0.35" d="M122.5 292.825H78.3997C75.6935 292.825 73.4997 295.019 73.4997 297.725V332.025C73.4997 334.731 75.6935 336.925 78.3997 336.925H122.5C125.206 336.925 127.4 334.731 127.4 332.025V297.725C127.4 295.019 125.206 292.825 122.5 292.825Z" stroke="#006270" stroke-width="0.979887"/>
<path opacity="0.35" d="M191.1 292.825H147C144.294 292.825 142.1 295.019 142.1 297.725V332.025C142.1 334.731 144.294 336.925 147 336.925H191.1C193.807 336.925 196 334.731 196 332.025V297.725C196 295.019 193.807 292.825 191.1 292.825Z" stroke="#006270" stroke-width="0.979887"/>
<path opacity="0.35" d="M259.7 292.825H215.6C212.894 292.825 210.7 295.019 210.7 297.725V332.025C210.7 334.731 212.894 336.925 215.6 336.925H259.7C262.406 336.925 264.6 334.731 264.6 332.025V297.725C264.6 295.019 262.406 292.825 259.7 292.825Z" stroke="#006270" stroke-width="0.979887"/>
<path opacity="0.35" d="M328.3 292.825H284.2C281.494 292.825 279.3 295.019 279.3 297.725V332.025C279.3 334.731 281.494 336.925 284.2 336.925H328.3C331.006 336.925 333.2 334.731 333.2 332.025V297.725C333.2 295.019 331.006 292.825 328.3 292.825Z" stroke="#006270" stroke-width="0.979887"/>
<path opacity="0.35" d="M396.9 292.825H352.8C350.093 292.825 347.9 295.019 347.9 297.725V332.025C347.9 334.731 350.093 336.925 352.8 336.925H396.9C399.606 336.925 401.8 334.731 401.8 332.025V297.725C401.8 295.019 399.606 292.825 396.9 292.825Z" stroke="#006270" stroke-width="0.979887"/>
<path opacity="0.35" d="M465.5 292.825H421.4C418.694 292.825 416.5 295.019 416.5 297.725V332.025C416.5 334.731 418.694 336.925 421.4 336.925H465.5C468.206 336.925 470.4 334.731 470.4 332.025V297.725C470.4 295.019 468.206 292.825 465.5 292.825Z" stroke="#006270" stroke-width="0.979887"/>
<path opacity="0.35" d="M534.1 292.825H490C487.294 292.825 485.1 295.019 485.1 297.725V332.025C485.1 334.731 487.294 336.925 490 336.925H534.1C536.806 336.925 539 334.731 539 332.025V297.725C539 295.019 536.806 292.825 534.1 292.825Z" stroke="#006270" stroke-width="0.979887"/>
<path opacity="0.35" d="M602.7 292.825H558.6C555.894 292.825 553.7 295.019 553.7 297.725V332.025C553.7 334.731 555.894 336.925 558.6 336.925H602.7C605.406 336.925 607.6 334.731 607.6 332.025V297.725C607.6 295.019 605.406 292.825 602.7 292.825Z" stroke="#006270" stroke-width="0.979887"/>
<path opacity="0.35" d="M671.3 292.825H627.2C624.494 292.825 622.3 295.019 622.3 297.725V332.025C622.3 334.731 624.494 336.925 627.2 336.925H671.3C674.007 336.925 676.2 334.731 676.2 332.025V297.725C676.2 295.019 674.007 292.825 671.3 292.825Z" stroke="#006270" stroke-width="0.979887"/>
<path opacity="0.35" d="M739.9 292.825H695.8C693.094 292.825 690.9 295.019 690.9 297.725V332.025C690.9 334.731 693.094 336.925 695.8 336.925H739.9C742.606 336.925 744.8 334.731 744.8 332.025V297.725C744.8 295.019 742.606 292.825 739.9 292.825Z" stroke="#006270" stroke-width="0.979887"/>
<path opacity="0.35" d="M808.5 292.825H764.4C761.694 292.825 759.5 295.019 759.5 297.725V332.025C759.5 334.731 761.694 336.925 764.4 336.925H808.5C811.206 336.925 813.4 334.731 813.4 332.025V297.725C813.4 295.019 811.206 292.825 808.5 292.825Z" stroke="#006270" stroke-width="0.979887"/>
<path opacity="0.35" d="M877.1 292.825H833C830.293 292.825 828.1 295.019 828.1 297.725V332.025C828.1 334.731 830.293 336.925 833 336.925H877.1C879.806 336.925 882 334.731 882 332.025V297.725C882 295.019 879.806 292.825 877.1 292.825Z" stroke="#006270" stroke-width="0.979887"/>
<path opacity="0.35" d="M945.7 292.825H901.6C898.894 292.825 896.7 295.019 896.7 297.725V332.025C896.7 334.731 898.894 336.925 901.6 336.925H945.7C948.407 336.925 950.6 334.731 950.6 332.025V297.725C950.6 295.019 948.407 292.825 945.7 292.825Z" stroke="#006270" stroke-width="0.979887"/>
<path opacity="0.35" d="M1014.3 292.825H970.2C967.494 292.825 965.3 295.019 965.3 297.725V332.025C965.3 334.731 967.494 336.925 970.2 336.925H1014.3C1017.01 336.925 1019.2 334.731 1019.2 332.025V297.725C1019.2 295.019 1017.01 292.825 1014.3 292.825Z" stroke="#006270" stroke-width="0.979887"/>
<path opacity="0.35" d="M1082.9 292.825H1038.8C1036.09 292.825 1033.9 295.019 1033.9 297.725V332.025C1033.9 334.731 1036.09 336.925 1038.8 336.925H1082.9C1085.61 336.925 1087.8 334.731 1087.8 332.025V297.725C1087.8 295.019 1085.61 292.825 1082.9 292.825Z" stroke="#006270" stroke-width="0.979887"/>
<path opacity="0.35" d="M1151.5 292.825H1107.4C1104.69 292.825 1102.5 295.019 1102.5 297.725V332.025C1102.5 334.731 1104.69 336.925 1107.4 336.925H1151.5C1154.21 336.925 1156.4 334.731 1156.4 332.025V297.725C1156.4 295.019 1154.21 292.825 1151.5 292.825Z" stroke="#006270" stroke-width="0.979887"/>
<path opacity="0.35" d="M1220.1 292.825H1176C1173.29 292.825 1171.1 295.019 1171.1 297.725V332.025C1171.1 334.731 1173.29 336.925 1176 336.925H1220.1C1222.81 336.925 1225 334.731 1225 332.025V297.725C1225 295.019 1222.81 292.825 1220.1 292.825Z" stroke="#006270" stroke-width="0.979887"/>
<path opacity="0.35" d="M1288.7 292.825H1244.6C1241.89 292.825 1239.7 295.019 1239.7 297.725V332.025C1239.7 334.731 1241.89 336.925 1244.6 336.925H1288.7C1291.41 336.925 1293.6 334.731 1293.6 332.025V297.725C1293.6 295.019 1291.41 292.825 1288.7 292.825Z" stroke="#006270" stroke-width="0.979887"/>
<path opacity="0.35" d="M1357.3 292.825H1313.2C1310.49 292.825 1308.3 295.019 1308.3 297.725V332.025C1308.3 334.731 1310.49 336.925 1313.2 336.925H1357.3C1360.01 336.925 1362.2 334.731 1362.2 332.025V297.725C1362.2 295.019 1360.01 292.825 1357.3 292.825Z" stroke="#006270" stroke-width="0.979887"/>
<path opacity="0.35" d="M1425.9 292.825H1381.8C1379.09 292.825 1376.9 295.019 1376.9 297.725V332.025C1376.9 334.731 1379.09 336.925 1381.8 336.925H1425.9C1428.61 336.925 1430.8 334.731 1430.8 332.025V297.725C1430.8 295.019 1428.61 292.825 1425.9 292.825Z" stroke="#006270" stroke-width="0.979887"/>
<path opacity="0.35" d="M1494.5 292.825H1450.4C1447.69 292.825 1445.5 295.019 1445.5 297.725V332.025C1445.5 334.731 1447.69 336.925 1450.4 336.925H1494.5C1497.21 336.925 1499.4 334.731 1499.4 332.025V297.725C1499.4 295.019 1497.21 292.825 1494.5 292.825Z" stroke="#006270" stroke-width="0.979887"/>
<path opacity="0.35" d="M53.9 361.425H9.79998C7.09378 361.425 4.89998 363.618 4.89998 366.325V400.625C4.89998 403.331 7.09378 405.525 9.79998 405.525H53.9C56.6062 405.525 58.8 403.331 58.8 400.625V366.325C58.8 363.618 56.6062 361.425 53.9 361.425Z" stroke="#006270" stroke-width="0.979887"/>
<path opacity="0.35" d="M122.5 361.425H78.3997C75.6935 361.425 73.4997 363.618 73.4997 366.325V400.625C73.4997 403.331 75.6935 405.525 78.3997 405.525H122.5C125.206 405.525 127.4 403.331 127.4 400.625V366.325C127.4 363.618 125.206 361.425 122.5 361.425Z" stroke="#006270" stroke-width="0.979887"/>
<path opacity="0.35" d="M191.1 361.425H147C144.294 361.425 142.1 363.618 142.1 366.325V400.625C142.1 403.331 144.294 405.525 147 405.525H191.1C193.807 405.525 196 403.331 196 400.625V366.325C196 363.618 193.807 361.425 191.1 361.425Z" stroke="#006270" stroke-width="0.979887"/>
<path opacity="0.35" d="M259.7 361.425H215.6C212.894 361.425 210.7 363.618 210.7 366.325V400.625C210.7 403.331 212.894 405.525 215.6 405.525H259.7C262.406 405.525 264.6 403.331 264.6 400.625V366.325C264.6 363.618 262.406 361.425 259.7 361.425Z" stroke="#006270" stroke-width="0.979887"/>
<path opacity="0.35" d="M328.3 361.425H284.2C281.494 361.425 279.3 363.618 279.3 366.325V400.625C279.3 403.331 281.494 405.525 284.2 405.525H328.3C331.006 405.525 333.2 403.331 333.2 400.625V366.325C333.2 363.618 331.006 361.425 328.3 361.425Z" stroke="#006270" stroke-width="0.979887"/>
<path opacity="0.35" d="M396.9 361.425H352.8C350.093 361.425 347.9 363.618 347.9 366.325V400.625C347.9 403.331 350.093 405.525 352.8 405.525H396.9C399.606 405.525 401.8 403.331 401.8 400.625V366.325C401.8 363.618 399.606 361.425 396.9 361.425Z" stroke="#006270" stroke-width="0.979887"/>
<path opacity="0.35" d="M465.5 361.425H421.4C418.694 361.425 416.5 363.618 416.5 366.325V400.625C416.5 403.331 418.694 405.525 421.4 405.525H465.5C468.206 405.525 470.4 403.331 470.4 400.625V366.325C470.4 363.618 468.206 361.425 465.5 361.425Z" stroke="#006270" stroke-width="0.979887"/>
<path opacity="0.35" d="M534.1 361.425H490C487.294 361.425 485.1 363.618 485.1 366.325V400.625C485.1 403.331 487.294 405.525 490 405.525H534.1C536.806 405.525 539 403.331 539 400.625V366.325C539 363.618 536.806 361.425 534.1 361.425Z" stroke="#006270" stroke-width="0.979887"/>
<path opacity="0.35" d="M602.7 361.425H558.6C555.894 361.425 553.7 363.618 553.7 366.325V400.625C553.7 403.331 555.894 405.525 558.6 405.525H602.7C605.406 405.525 607.6 403.331 607.6 400.625V366.325C607.6 363.618 605.406 361.425 602.7 361.425Z" stroke="#006270" stroke-width="0.979887"/>
<path opacity="0.35" d="M671.3 361.425H627.2C624.494 361.425 622.3 363.618 622.3 366.325V400.625C622.3 403.331 624.494 405.525 627.2 405.525H671.3C674.007 405.525 676.2 403.331 676.2 400.625V366.325C676.2 363.618 674.007 361.425 671.3 361.425Z" stroke="#006270" stroke-width="0.979887"/>
<path opacity="0.35" d="M739.9 361.425H695.8C693.094 361.425 690.9 363.618 690.9 366.325V400.625C690.9 403.331 693.094 405.525 695.8 405.525H739.9C742.606 405.525 744.8 403.331 744.8 400.625V366.325C744.8 363.618 742.606 361.425 739.9 361.425Z" stroke="#006270" stroke-width="0.979887"/>
<path opacity="0.35" d="M808.5 361.425H764.4C761.694 361.425 759.5 363.618 759.5 366.325V400.625C759.5 403.331 761.694 405.525 764.4 405.525H808.5C811.206 405.525 813.4 403.331 813.4 400.625V366.325C813.4 363.618 811.206 361.425 808.5 361.425Z" stroke="#006270" stroke-width="0.979887"/>
<path opacity="0.35" d="M877.1 361.425H833C830.293 361.425 828.1 363.618 828.1 366.325V400.625C828.1 403.331 830.293 405.525 833 405.525H877.1C879.806 405.525 882 403.331 882 400.625V366.325C882 363.618 879.806 361.425 877.1 361.425Z" stroke="#006270" stroke-width="0.979887"/>
<path opacity="0.35" d="M945.7 361.425H901.6C898.894 361.425 896.7 363.618 896.7 366.325V400.625C896.7 403.331 898.894 405.525 901.6 405.525H945.7C948.407 405.525 950.6 403.331 950.6 400.625V366.325C950.6 363.618 948.407 361.425 945.7 361.425Z" stroke="#006270" stroke-width="0.979887"/>
<path opacity="0.35" d="M1014.3 361.425H970.2C967.494 361.425 965.3 363.618 965.3 366.325V400.625C965.3 403.331 967.494 405.525 970.2 405.525H1014.3C1017.01 405.525 1019.2 403.331 1019.2 400.625V366.325C1019.2 363.618 1017.01 361.425 1014.3 361.425Z" stroke="#006270" stroke-width="0.979887"/>
<path opacity="0.35" d="M1082.9 361.425H1038.8C1036.09 361.425 1033.9 363.618 1033.9 366.325V400.625C1033.9 403.331 1036.09 405.525 1038.8 405.525H1082.9C1085.61 405.525 1087.8 403.331 1087.8 400.625V366.325C1087.8 363.618 1085.61 361.425 1082.9 361.425Z" stroke="#006270" stroke-width="0.979887"/>
<path opacity="0.35" d="M1151.5 361.425H1107.4C1104.69 361.425 1102.5 363.618 1102.5 366.325V400.625C1102.5 403.331 1104.69 405.525 1107.4 405.525H1151.5C1154.21 405.525 1156.4 403.331 1156.4 400.625V366.325C1156.4 363.618 1154.21 361.425 1151.5 361.425Z" stroke="#006270" stroke-width="0.979887"/>
<path opacity="0.35" d="M1220.1 361.425H1176C1173.29 361.425 1171.1 363.618 1171.1 366.325V400.625C1171.1 403.331 1173.29 405.525 1176 405.525H1220.1C1222.81 405.525 1225 403.331 1225 400.625V366.325C1225 363.618 1222.81 361.425 1220.1 361.425Z" stroke="#006270" stroke-width="0.979887"/>
<path opacity="0.35" d="M1288.7 361.425H1244.6C1241.89 361.425 1239.7 363.618 1239.7 366.325V400.625C1239.7 403.331 1241.89 405.525 1244.6 405.525H1288.7C1291.41 405.525 1293.6 403.331 1293.6 400.625V366.325C1293.6 363.618 1291.41 361.425 1288.7 361.425Z" stroke="#006270" stroke-width="0.979887"/>
<path opacity="0.35" d="M1357.3 361.425H1313.2C1310.49 361.425 1308.3 363.618 1308.3 366.325V400.625C1308.3 403.331 1310.49 405.525 1313.2 405.525H1357.3C1360.01 405.525 1362.2 403.331 1362.2 400.625V366.325C1362.2 363.618 1360.01 361.425 1357.3 361.425Z" stroke="#006270" stroke-width="0.979887"/>
<path opacity="0.35" d="M1425.9 361.425H1381.8C1379.09 361.425 1376.9 363.618 1376.9 366.325V400.625C1376.9 403.331 1379.09 405.525 1381.8 405.525H1425.9C1428.61 405.525 1430.8 403.331 1430.8 400.625V366.325C1430.8 363.618 1428.61 361.425 1425.9 361.425Z" stroke="#006270" stroke-width="0.979887"/>
<path opacity="0.35" d="M1494.5 361.425H1450.4C1447.69 361.425 1445.5 363.618 1445.5 366.325V400.625C1445.5 403.331 1447.69 405.525 1450.4 405.525H1494.5C1497.21 405.525 1499.4 403.331 1499.4 400.625V366.325C1499.4 363.618 1497.21 361.425 1494.5 361.425Z" stroke="#006270" stroke-width="0.979887"/>
<path opacity="0.35" d="M53.9 430.024H9.79998C7.09378 430.024 4.89998 432.218 4.89998 434.924V469.224C4.89998 471.931 7.09378 474.124 9.79998 474.124H53.9C56.6062 474.124 58.8 471.931 58.8 469.224V434.924C58.8 432.218 56.6062 430.024 53.9 430.024Z" stroke="#006270" stroke-width="0.979887"/>
<path opacity="0.35" d="M122.5 430.024H78.3997C75.6935 430.024 73.4997 432.218 73.4997 434.924V469.224C73.4997 471.931 75.6935 474.124 78.3997 474.124H122.5C125.206 474.124 127.4 471.931 127.4 469.224V434.924C127.4 432.218 125.206 430.024 122.5 430.024Z" stroke="#006270" stroke-width="0.979887"/>
<path opacity="0.35" d="M191.1 430.024H147C144.294 430.024 142.1 432.218 142.1 434.924V469.224C142.1 471.931 144.294 474.124 147 474.124H191.1C193.807 474.124 196 471.931 196 469.224V434.924C196 432.218 193.807 430.024 191.1 430.024Z" stroke="#006270" stroke-width="0.979887"/>
<path opacity="0.35" d="M259.7 430.024H215.6C212.894 430.024 210.7 432.218 210.7 434.924V469.224C210.7 471.931 212.894 474.124 215.6 474.124H259.7C262.406 474.124 264.6 471.931 264.6 469.224V434.924C264.6 432.218 262.406 430.024 259.7 430.024Z" stroke="#006270" stroke-width="0.979887"/>
<path opacity="0.35" d="M328.3 430.024H284.2C281.494 430.024 279.3 432.218 279.3 434.924V469.224C279.3 471.931 281.494 474.124 284.2 474.124H328.3C331.006 474.124 333.2 471.931 333.2 469.224V434.924C333.2 432.218 331.006 430.024 328.3 430.024Z" stroke="#006270" stroke-width="0.979887"/>
<path opacity="0.35" d="M396.9 430.024H352.8C350.093 430.024 347.9 432.218 347.9 434.924V469.224C347.9 471.931 350.093 474.124 352.8 474.124H396.9C399.606 474.124 401.8 471.931 401.8 469.224V434.924C401.8 432.218 399.606 430.024 396.9 430.024Z" stroke="#006270" stroke-width="0.979887"/>
<path opacity="0.35" d="M465.5 430.024H421.4C418.694 430.024 416.5 432.218 416.5 434.924V469.224C416.5 471.931 418.694 474.124 421.4 474.124H465.5C468.206 474.124 470.4 471.931 470.4 469.224V434.924C470.4 432.218 468.206 430.024 465.5 430.024Z" stroke="#006270" stroke-width="0.979887"/>
<path opacity="0.35" d="M534.1 430.024H490C487.294 430.024 485.1 432.218 485.1 434.924V469.224C485.1 471.931 487.294 474.124 490 474.124H534.1C536.806 474.124 539 471.931 539 469.224V434.924C539 432.218 536.806 430.024 534.1 430.024Z" stroke="#006270" stroke-width="0.979887"/>
<path opacity="0.35" d="M602.7 430.024H558.6C555.894 430.024 553.7 432.218 553.7 434.924V469.224C553.7 471.931 555.894 474.124 558.6 474.124H602.7C605.406 474.124 607.6 471.931 607.6 469.224V434.924C607.6 432.218 605.406 430.024 602.7 430.024Z" stroke="#006270" stroke-width="0.979887"/>
<path opacity="0.35" d="M671.3 430.024H627.2C624.494 430.024 622.3 432.218 622.3 434.924V469.224C622.3 471.931 624.494 474.124 627.2 474.124H671.3C674.007 474.124 676.2 471.931 676.2 469.224V434.924C676.2 432.218 674.007 430.024 671.3 430.024Z" stroke="#006270" stroke-width="0.979887"/>
<path opacity="0.35" d="M739.9 430.024H695.8C693.094 430.024 690.9 432.218 690.9 434.924V469.224C690.9 471.931 693.094 474.124 695.8 474.124H739.9C742.606 474.124 744.8 471.931 744.8 469.224V434.924C744.8 432.218 742.606 430.024 739.9 430.024Z" stroke="#006270" stroke-width="0.979887"/>
<path opacity="0.35" d="M808.5 430.024H764.4C761.694 430.024 759.5 432.218 759.5 434.924V469.224C759.5 471.931 761.694 474.124 764.4 474.124H808.5C811.206 474.124 813.4 471.931 813.4 469.224V434.924C813.4 432.218 811.206 430.024 808.5 430.024Z" stroke="#006270" stroke-width="0.979887"/>
<path opacity="0.35" d="M877.1 430.024H833C830.293 430.024 828.1 432.218 828.1 434.924V469.224C828.1 471.931 830.293 474.124 833 474.124H877.1C879.806 474.124 882 471.931 882 469.224V434.924C882 432.218 879.806 430.024 877.1 430.024Z" stroke="#006270" stroke-width="0.979887"/>
<path opacity="0.35" d="M945.7 430.024H901.6C898.894 430.024 896.7 432.218 896.7 434.924V469.224C896.7 471.931 898.894 474.124 901.6 474.124H945.7C948.407 474.124 950.6 471.931 950.6 469.224V434.924C950.6 432.218 948.407 430.024 945.7 430.024Z" stroke="#006270" stroke-width="0.979887"/>
<path opacity="0.35" d="M1014.3 430.024H970.2C967.494 430.024 965.3 432.218 965.3 434.924V469.224C965.3 471.931 967.494 474.124 970.2 474.124H1014.3C1017.01 474.124 1019.2 471.931 1019.2 469.224V434.924C1019.2 432.218 1017.01 430.024 1014.3 430.024Z" stroke="#006270" stroke-width="0.979887"/>
<path opacity="0.35" d="M1082.9 430.024H1038.8C1036.09 430.024 1033.9 432.218 1033.9 434.924V469.224C1033.9 471.931 1036.09 474.124 1038.8 474.124H1082.9C1085.61 474.124 1087.8 471.931 1087.8 469.224V434.924C1087.8 432.218 1085.61 430.024 1082.9 430.024Z" stroke="#006270" stroke-width="0.979887"/>
<path opacity="0.35" d="M1151.5 430.024H1107.4C1104.69 430.024 1102.5 432.218 1102.5 434.924V469.224C1102.5 471.931 1104.69 474.124 1107.4 474.124H1151.5C1154.21 474.124 1156.4 471.931 1156.4 469.224V434.924C1156.4 432.218 1154.21 430.024 1151.5 430.024Z" stroke="#006270" stroke-width="0.979887"/>
<path opacity="0.35" d="M1220.1 430.024H1176C1173.29 430.024 1171.1 432.218 1171.1 434.924V469.224C1171.1 471.931 1173.29 474.124 1176 474.124H1220.1C1222.81 474.124 1225 471.931 1225 469.224V434.924C1225 432.218 1222.81 430.024 1220.1 430.024Z" stroke="#006270" stroke-width="0.979887"/>
<path opacity="0.35" d="M1288.7 430.024H1244.6C1241.89 430.024 1239.7 432.218 1239.7 434.924V469.224C1239.7 471.931 1241.89 474.124 1244.6 474.124H1288.7C1291.41 474.124 1293.6 471.931 1293.6 469.224V434.924C1293.6 432.218 1291.41 430.024 1288.7 430.024Z" stroke="#006270" stroke-width="0.979887"/>
<path opacity="0.35" d="M1357.3 430.024H1313.2C1310.49 430.024 1308.3 432.218 1308.3 434.924V469.224C1308.3 471.931 1310.49 474.124 1313.2 474.124H1357.3C1360.01 474.124 1362.2 471.931 1362.2 469.224V434.924C1362.2 432.218 1360.01 430.024 1357.3 430.024Z" stroke="#006270" stroke-width="0.979887"/>
<path opacity="0.35" d="M1425.9 430.024H1381.8C1379.09 430.024 1376.9 432.218 1376.9 434.924V469.224C1376.9 471.931 1379.09 474.124 1381.8 474.124H1425.9C1428.61 474.124 1430.8 471.931 1430.8 469.224V434.924C1430.8 432.218 1428.61 430.024 1425.9 430.024Z" stroke="#006270" stroke-width="0.979887"/>
<path opacity="0.35" d="M1494.5 430.024H1450.4C1447.69 430.024 1445.5 432.218 1445.5 434.924V469.224C1445.5 471.931 1447.69 474.124 1450.4 474.124H1494.5C1497.21 474.124 1499.4 471.931 1499.4 469.224V434.924C1499.4 432.218 1497.21 430.024 1494.5 430.024Z" stroke="#006270" stroke-width="0.979887"/>
<path d="M1470 -55.0757H0V532.924H1470V-55.0757Z" fill="url(#paint0_linear_21_1639)"/>
<path opacity="0.5" d="M845.25 140.924H624.75C617.985 140.924 612.5 146.409 612.5 153.174V300.174C612.5 306.94 617.985 312.424 624.75 312.424H845.25C852.016 312.424 857.5 306.94 857.5 300.174V153.174C857.5 146.409 852.016 140.924 845.25 140.924Z" stroke="#006270" stroke-width="2.44972"/>
<path d="M722.75 165.424H643.125C639.743 165.424 637 168.167 637 171.549V214.424C637 217.807 639.743 220.549 643.125 220.549H722.75C726.133 220.549 728.875 217.807 728.875 214.424V171.549C728.875 168.167 726.133 165.424 722.75 165.424Z" fill="#006270" fill-opacity="0.19"/>
<path d="M826.875 165.424H747.25C743.867 165.424 741.125 168.167 741.125 171.549V214.424C741.125 217.807 743.867 220.549 747.25 220.549H826.875C830.257 220.549 833 217.807 833 214.424V171.549C833 168.167 830.257 165.424 826.875 165.424Z" fill="#00E0C7" fill-opacity="0.125"/>
<path d="M829.325 232.799H640.675C638.646 232.799 637 234.445 637 236.474V243.824C637 245.854 638.646 247.499 640.675 247.499H829.325C831.355 247.499 833 245.854 833 243.824V236.474C833 234.445 831.355 232.799 829.325 232.799Z" fill="#006270" fill-opacity="0.145"/>
<path d="M780.325 257.299H640.675C638.646 257.299 637 258.945 637 260.974V263.424C637 265.454 638.646 267.099 640.675 267.099H780.325C782.355 267.099 784 265.454 784 263.424V260.974C784 258.945 782.355 257.299 780.325 257.299Z" fill="#006270" fill-opacity="0.082"/>
<path d="M755.825 276.899H640.675C638.646 276.899 637 278.545 637 280.574V283.024C637 285.054 638.646 286.699 640.675 286.699H755.825C757.855 286.699 759.5 285.054 759.5 283.024V280.574C759.5 278.545 757.855 276.899 755.825 276.899Z" fill="#006270" fill-opacity="0.082"/>
</g>
<defs>
<linearGradient id="paint0_linear_21_1639" x1="0" y1="-55.0757" x2="0" y2="532.924" gradientUnits="userSpaceOnUse">
<stop stop-color="#006270" stop-opacity="0"/>
<stop offset="1" stop-color="#006270" stop-opacity="0.12549"/>
</linearGradient>
<clipPath id="clip0_21_1639">
<rect width="1469.83" height="477.794" fill="white"/>
</clipPath>
</defs>
</svg>
