<svg width="28" height="28" viewBox="0 0 28 28" fill="none" xmlns="http://www.w3.org/2000/svg">
<path d="M23.3332 2.33348H4.66656C3.3779 2.33348 2.33323 3.37814 2.33323 4.66681V9.33347C2.33323 10.6221 3.3779 11.6668 4.66656 11.6668H23.3332C24.6219 11.6668 25.6665 10.6221 25.6665 9.33347V4.66681C25.6665 3.37814 24.6219 2.33348 23.3332 2.33348Z" stroke="#006270" stroke-opacity="0.3" stroke-width="2.33238" stroke-linecap="round" stroke-linejoin="round"/>
<path d="M23.3332 16.3334H4.66656C3.3779 16.3334 2.33323 17.378 2.33323 18.6667V23.3333C2.33323 24.622 3.3779 25.6667 4.66656 25.6667H23.3332C24.6219 25.6667 25.6665 24.622 25.6665 23.3333V18.6667C25.6665 17.378 24.6219 16.3334 23.3332 16.3334Z" stroke="#006270" stroke-opacity="0.3" stroke-width="2.33238" stroke-linecap="round" stroke-linejoin="round"/>
<path d="M6.99994 6.99994H7.01161" stroke="#006270" stroke-opacity="0.3" stroke-width="2.33333" stroke-linecap="round" stroke-linejoin="round"/>
<path d="M6.99994 20.9998H7.01161" stroke="#006270" stroke-opacity="0.3" stroke-width="2.33333" stroke-linecap="round" stroke-linejoin="round"/>
</svg>
